<svg width="24" height="24" viewBox="0 0 24 24" fill="none" xmlns="http://www.w3.org/2000/svg">
<path d="M8.25006 20.25C8.66427 20.25 9.00006 19.9142 9.00006 19.5C9.00006 19.0858 8.66427 18.75 8.25006 18.75C7.83585 18.75 7.50006 19.0858 7.50006 19.5C7.50006 19.9142 7.83585 20.25 8.25006 20.25Z" stroke="#666666" stroke-width="1.5" stroke-linecap="round" stroke-linejoin="round"/>
<path d="M18.7501 20.25C19.1643 20.25 19.5001 19.9142 19.5001 19.5C19.5001 19.0858 19.1643 18.75 18.7501 18.75C18.3358 18.75 18.0001 19.0858 18.0001 19.5C18.0001 19.9142 18.3358 20.25 18.7501 20.25Z" stroke="#666666" stroke-width="1.5" stroke-linecap="round" stroke-linejoin="round"/>
<path d="M2.25 3.75H5.25L7.5 16.5H19.5" stroke="#666666" stroke-width="1.5" stroke-linecap="round" stroke-linejoin="round"/>
<path d="M7.50018 13.4961H19.1927C19.2794 13.4962 19.3635 13.4662 19.4306 13.4112C19.4977 13.3562 19.5436 13.2797 19.5607 13.1947L20.9107 6.44469C20.9215 6.39026 20.9202 6.33409 20.9068 6.28024C20.8933 6.22638 20.8681 6.17618 20.8329 6.13327C20.7977 6.09035 20.7534 6.05578 20.7032 6.03206C20.653 6.00834 20.5982 5.99606 20.5427 5.99609H6.00018" stroke="#666666" stroke-width="1.5" stroke-linecap="round" stroke-linejoin="round"/>
</svg>
