<svg width="24" height="25" viewBox="0 0 24 25" fill="none" xmlns="http://www.w3.org/2000/svg">
<path d="M4 4.3252H10V10.3252H4V4.3252Z" stroke="#354052" stroke-width="2" stroke-linecap="round" stroke-linejoin="round"/>
<path d="M14 4.3252H20V10.3252H14V4.3252Z" stroke="#354052" stroke-width="2" stroke-linecap="round" stroke-linejoin="round"/>
<path d="M4 14.3252H10V20.3252H4V14.3252Z" stroke="#354052" stroke-width="2" stroke-linecap="round" stroke-linejoin="round"/>
<path d="M14 17.3252C14 18.1208 14.3161 18.8839 14.8787 19.4465C15.4413 20.0091 16.2044 20.3252 17 20.3252C17.7956 20.3252 18.5587 20.0091 19.1213 19.4465C19.6839 18.8839 20 18.1208 20 17.3252C20 16.5295 19.6839 15.7665 19.1213 15.2039C18.5587 14.6413 17.7956 14.3252 17 14.3252C16.2044 14.3252 15.4413 14.6413 14.8787 15.2039C14.3161 15.7665 14 16.5295 14 17.3252Z" stroke="#354052" stroke-width="2" stroke-linecap="round" stroke-linejoin="round"/>
</svg>
