<svg width="24" height="25" viewBox="0 0 24 25" fill="none" xmlns="http://www.w3.org/2000/svg">
<path d="M15 4.3252L21 6.3252V11.3252H18V19.3252C18 19.5904 17.8946 19.8448 17.7071 20.0323C17.5196 20.2198 17.2652 20.3252 17 20.3252H7C6.73478 20.3252 6.48043 20.2198 6.29289 20.0323C6.10536 19.8448 6 19.5904 6 19.3252V11.3252H3V6.3252L9 4.3252C9 5.12084 9.31607 5.88391 9.87868 6.44652C10.4413 7.00912 11.2044 7.3252 12 7.3252C12.7956 7.3252 13.5587 7.00912 14.1213 6.44652C14.6839 5.88391 15 5.12084 15 4.3252Z" stroke="#354052" stroke-width="2" stroke-linecap="round" stroke-linejoin="round"/>
</svg>
