<svg width="24" height="25" viewBox="0 0 24 25" fill="none" xmlns="http://www.w3.org/2000/svg">
<path d="M9 15.3252L15 9.32517M10 9.82517C10 10.1013 9.77614 10.3252 9.5 10.3252C9.22386 10.3252 9 10.1013 9 9.82517C9 9.54903 9.22386 9.32517 9.5 9.32517C9.77614 9.32517 10 9.54903 10 9.82517ZM15 14.8252C15 15.1013 14.7761 15.3252 14.5 15.3252C14.2239 15.3252 14 15.1013 14 14.8252C14 14.549 14.2239 14.3252 14.5 14.3252C14.7761 14.3252 15 14.549 15 14.8252ZM4.99997 7.52517C4.99997 6.94169 5.23176 6.38211 5.64434 5.96953C6.05692 5.55695 6.6165 5.32517 7.19997 5.32517H8.19997C8.78087 5.32484 9.33806 5.09477 9.74997 4.68517L10.45 3.98517C10.6544 3.77957 10.8975 3.61641 11.1652 3.50508C11.4329 3.39374 11.72 3.33643 12.01 3.33643C12.2999 3.33643 12.587 3.39374 12.8547 3.50508C13.1225 3.61641 13.3655 3.77957 13.57 3.98517L14.27 4.68517C14.6819 5.09477 15.2391 5.32484 15.82 5.32517H16.82C17.4034 5.32517 17.963 5.55695 18.3756 5.96953C18.7882 6.38211 19.02 6.94169 19.02 7.52517V8.52517C19.0203 9.10607 19.2504 9.66326 19.66 10.0752L20.36 10.7752C20.5656 10.9796 20.7287 11.2227 20.8401 11.4904C20.9514 11.7581 21.0087 12.0452 21.0087 12.3352C21.0087 12.6251 20.9514 12.9122 20.8401 13.1799C20.7287 13.4476 20.5656 13.6907 20.36 13.8952L19.66 14.5952C19.2504 15.0071 19.0203 15.5643 19.02 16.1452V17.1452C19.02 17.7286 18.7882 18.2882 18.3756 18.7008C17.963 19.1134 17.4034 19.3452 16.82 19.3452H15.82C15.2391 19.3455 14.6819 19.5756 14.27 19.9852L13.57 20.6852C13.3655 20.8908 13.1225 21.0539 12.8547 21.1653C12.587 21.2766 12.2999 21.3339 12.01 21.3339C11.72 21.3339 11.4329 21.2766 11.1652 21.1653C10.8975 21.0539 10.6544 20.8908 10.45 20.6852L9.74997 19.9852C9.33806 19.5756 8.78087 19.3455 8.19997 19.3452H7.19997C6.6165 19.3452 6.05692 19.1134 5.64434 18.7008C5.23176 18.2882 4.99997 17.7286 4.99997 17.1452V16.1452C4.99964 15.5643 4.76957 15.0071 4.35997 14.5952L3.65997 13.8952C3.45437 13.6907 3.29121 13.4476 3.17988 13.1799C3.06855 12.9122 3.01123 12.6251 3.01123 12.3352C3.01123 12.0452 3.06855 11.7581 3.17988 11.4904C3.29121 11.2227 3.45437 10.9796 3.65997 10.7752L4.35997 10.0752C4.76957 9.66326 4.99964 9.10607 4.99997 8.52517V7.52517Z" stroke="#354052" stroke-width="2" stroke-linecap="round" stroke-linejoin="round"/>
</svg>
