<svg width="24" height="24" viewBox="0 0 24 24" fill="none" xmlns="http://www.w3.org/2000/svg">
<path d="M13 18.9997L12 19.9997L4.5 12.5717C4.0053 12.0903 3.61564 11.5117 3.35554 10.8723C3.09545 10.2329 2.97056 9.54664 2.98873 8.85662C3.00691 8.1666 3.16776 7.48782 3.46115 6.86303C3.75455 6.23823 4.17413 5.68094 4.69348 5.22627C5.21283 4.77159 5.8207 4.42938 6.47881 4.22117C7.13691 4.01296 7.831 3.94327 8.51736 4.01649C9.20373 4.08971 9.8675 4.30425 10.4669 4.64659C11.0662 4.98894 11.5882 5.45169 12 6.00569C12.7956 4.94482 13.9801 4.24348 15.2929 4.05594C16.6056 3.8684 17.9391 4.21004 19 5.00569C20.0609 5.80134 20.7622 6.98583 20.9497 8.29858C21.1373 9.61134 20.7956 10.9448 20 12.0057M14 15.9997H20M17 12.9997V18.9997" stroke="#354052" stroke-width="2" stroke-linecap="round" stroke-linejoin="round"/>
</svg>
