<svg width="24" height="25" viewBox="0 0 24 25" fill="none" xmlns="http://www.w3.org/2000/svg">
<path d="M19.5 12.8969L12 20.3249L4.5 12.8969C4.0053 12.4155 3.61564 11.8369 3.35554 11.1975C3.09545 10.5581 2.97056 9.87183 2.98873 9.18182C3.00691 8.4918 3.16776 7.81302 3.46115 7.18822C3.75455 6.56342 4.17413 6.00614 4.69348 5.55146C5.21283 5.09679 5.8207 4.75457 6.47881 4.54636C7.13691 4.33816 7.831 4.26847 8.51736 4.34169C9.20373 4.4149 9.8675 4.62944 10.4669 4.97179C11.0662 5.31414 11.5882 5.77688 12 6.33088C12.4135 5.78091 12.9361 5.3222 13.5351 4.98349C14.1341 4.64477 14.7965 4.43333 15.4809 4.3624C16.1654 4.29147 16.8571 4.36258 17.5128 4.57128C18.1685 4.77997 18.774 5.12176 19.2915 5.57525C19.8091 6.02874 20.2274 6.58417 20.5204 7.20678C20.8134 7.82938 20.9747 8.50577 20.9943 9.19359C21.0139 9.88142 20.8913 10.5659 20.6341 11.2041C20.377 11.8424 19.9909 12.4207 19.5 12.9029" stroke="#FB923C" stroke-width="2" stroke-linecap="round" stroke-linejoin="round"/>
</svg>
