<svg width="24" height="24" viewBox="0 0 24 24" fill="none" xmlns="http://www.w3.org/2000/svg">
<path d="M14.017 17.9997L12 19.9997L4.5 12.5717C4.0053 12.0903 3.61564 11.5117 3.35554 10.8723C3.09545 10.2329 2.97056 9.54664 2.98873 8.85662C3.00691 8.1666 3.16776 7.48782 3.46115 6.86303C3.75455 6.23823 4.17413 5.68094 4.69348 5.22627C5.21283 4.77159 5.8207 4.42938 6.47881 4.22117C7.13691 4.01296 7.831 3.94327 8.51736 4.01649C9.20373 4.08971 9.8675 4.30425 10.4669 4.64659C11.0662 4.98894 11.5882 5.45169 12 6.00569C12.7823 4.96422 13.9401 4.26913 15.2271 4.06834C16.514 3.86755 17.8285 4.1769 18.8909 4.93057C19.9533 5.68423 20.6796 6.82272 20.9153 8.10375C21.151 9.38478 20.8775 10.7072 20.153 11.7897M15.99 19.9997L20.187 15.7767C20.7061 15.2508 20.9971 14.5416 20.9971 13.8027C20.9971 13.0638 20.7061 12.3546 20.187 11.8287C19.9319 11.5694 19.6279 11.3633 19.2926 11.2224C18.9572 11.0815 18.5972 11.0086 18.2335 11.0079C17.8697 11.0073 17.5095 11.0789 17.1736 11.2186C16.8378 11.3583 16.533 11.5633 16.277 11.8217L15.997 12.1037L15.718 11.8207C15.4629 11.5614 15.1589 11.3553 14.8236 11.2144C14.4882 11.0735 14.1282 11.0006 13.7645 10.9999C13.4007 10.9993 13.0405 11.0709 12.7046 11.2106C12.3688 11.3503 12.064 11.5553 11.808 11.8137C11.288 12.3387 10.9957 13.0473 10.9944 13.7863C10.993 14.5252 11.2828 15.2349 11.801 15.7617L15.983 19.9997H15.99Z" stroke="#354052" stroke-width="2" stroke-linecap="round" stroke-linejoin="round"/>
</svg>
