<svg width="21" height="19" viewBox="0 0 21 19" fill="none" xmlns="http://www.w3.org/2000/svg">
<path d="M18.5 9.89688L11 17.3249L3.5 9.89688C3.0053 9.4155 2.61564 8.8369 2.35554 8.19752C2.09545 7.55814 1.97056 6.87183 1.98873 6.18182C2.00691 5.4918 2.16776 4.81302 2.46115 4.18822C2.75455 3.56342 3.17413 3.00614 3.69348 2.55146C4.21283 2.09679 4.8207 1.75457 5.47881 1.54636C6.13691 1.33816 6.831 1.26847 7.51736 1.34169C8.20373 1.4149 8.8675 1.62944 9.46687 1.97179C10.0662 2.31414 10.5882 2.77688 11 3.33088C11.4135 2.78091 11.9361 2.3222 12.5351 1.98349C13.1341 1.64477 13.7965 1.43333 14.4809 1.3624C15.1654 1.29147 15.8571 1.36258 16.5128 1.57128C17.1685 1.77997 17.774 2.12176 18.2915 2.57525C18.8091 3.02874 19.2274 3.58417 19.5204 4.20678C19.8134 4.82938 19.9747 5.50577 19.9943 6.19359C20.0139 6.88142 19.8913 7.56588 19.6341 8.20413C19.377 8.84239 18.9909 9.42071 18.5 9.90288" fill="#FFF7ED"/>
<path d="M18.5 9.89688L11 17.3249L3.5 9.89688C3.0053 9.4155 2.61564 8.8369 2.35554 8.19752C2.09545 7.55814 1.97056 6.87183 1.98873 6.18182C2.00691 5.4918 2.16776 4.81302 2.46115 4.18822C2.75455 3.56342 3.17413 3.00614 3.69348 2.55146C4.21283 2.09679 4.8207 1.75457 5.47881 1.54636C6.13691 1.33816 6.831 1.26847 7.51736 1.34169C8.20373 1.4149 8.8675 1.62944 9.46687 1.97179C10.0662 2.31414 10.5882 2.77688 11 3.33088C11.4135 2.78091 11.9361 2.3222 12.5351 1.98349C13.1341 1.64477 13.7965 1.43333 14.4809 1.3624C15.1654 1.29147 15.8571 1.36258 16.5128 1.57128C17.1685 1.77997 17.774 2.12176 18.2915 2.57525C18.8091 3.02874 19.2274 3.58417 19.5204 4.20678C19.8134 4.82938 19.9747 5.50577 19.9943 6.19359C20.0139 6.88142 19.8913 7.56588 19.6341 8.20413C19.377 8.84239 18.9909 9.42071 18.5 9.90288" stroke="#FB923C" stroke-width="2" stroke-linecap="round" stroke-linejoin="round"/>
</svg>
