<svg width="24" height="25" viewBox="0 0 24 25" fill="none" xmlns="http://www.w3.org/2000/svg">
<path d="M6 21.3252H18C18.5304 21.3252 19.0391 21.1145 19.4142 20.7394C19.7893 20.3643 20 19.8556 20 19.3252V13.5052C19.9999 12.729 19.8192 11.9634 19.472 11.2692L18.528 9.3812C18.1808 8.68695 18.0001 7.92141 18 7.1452V5.3252C18 4.79476 17.7893 4.28605 17.4142 3.91098C17.0391 3.53591 16.5304 3.3252 16 3.3252H8C7.46957 3.3252 6.96086 3.53591 6.58579 3.91098C6.21071 4.28605 6 4.79476 6 5.3252V8.3252M6 21.3252C5.46957 21.3252 4.96086 21.1145 4.58579 20.7394C4.21071 20.3643 4 19.8556 4 19.3252V13.5052C4.00005 12.729 4.18082 11.9634 4.528 11.2692L6 8.3252M6 21.3252C6.53043 21.3252 7.03914 21.1145 7.41421 20.7394C7.78929 20.3643 8 19.8556 8 19.3252V13.5052C7.99995 12.729 7.81918 11.9634 7.472 11.2692L6 8.3252M11 7.3252H13M12 15.3252C12 15.8556 12.2107 16.3643 12.5858 16.7394C12.9609 17.1145 13.4696 17.3252 14 17.3252C14.5304 17.3252 15.0391 17.1145 15.4142 16.7394C15.7893 16.3643 16 15.8556 16 15.3252C16 14.7948 15.7893 14.2861 15.4142 13.911C15.0391 13.5359 14.5304 13.3252 14 13.3252C13.4696 13.3252 12.9609 13.5359 12.5858 13.911C12.2107 14.2861 12 14.7948 12 15.3252Z" stroke="#354052" stroke-width="2" stroke-linecap="round" stroke-linejoin="round"/>
</svg>
