<svg width="24" height="25" viewBox="0 0 24 25" fill="none" xmlns="http://www.w3.org/2000/svg">
<path d="M9.5 3.3252H14.5C14.8978 3.3252 15.2794 3.48323 15.5607 3.76454C15.842 4.04584 16 4.42737 16 4.8252C16 5.75345 15.6313 6.64369 14.9749 7.30007C14.3185 7.95645 13.4283 8.3252 12.5 8.3252H11.5C10.5717 8.3252 9.6815 7.95645 9.02513 7.30007C8.36875 6.64369 8 5.75345 8 4.8252C8 4.42737 8.15804 4.04584 8.43934 3.76454C8.72064 3.48323 9.10218 3.3252 9.5 3.3252Z" stroke="#354052" stroke-width="2" stroke-linecap="round" stroke-linejoin="round"/>
<path d="M4 17.3252V16.3252C4 14.2035 4.84285 12.1686 6.34315 10.6683C7.84344 9.16805 9.87827 8.3252 12 8.3252C14.1217 8.3252 16.1566 9.16805 17.6569 10.6683C19.1571 12.1686 20 14.2035 20 16.3252V17.3252C20 18.3861 19.5786 19.4035 18.8284 20.1536C18.0783 20.9038 17.0609 21.3252 16 21.3252H8C6.93913 21.3252 5.92172 20.9038 5.17157 20.1536C4.42143 19.4035 4 18.3861 4 17.3252Z" stroke="#354052" stroke-width="2" stroke-linecap="round" stroke-linejoin="round"/>
</svg>
