<svg width="24" height="25" viewBox="0 0 24 25" fill="none" xmlns="http://www.w3.org/2000/svg">
<path d="M9 5.3252H7C6.46957 5.3252 5.96086 5.53591 5.58579 5.91098C5.21071 6.28605 5 6.79476 5 7.3252V19.3252C5 19.8556 5.21071 20.3643 5.58579 20.7394C5.96086 21.1145 6.46957 21.3252 7 21.3252H17C17.5304 21.3252 18.0391 21.1145 18.4142 20.7394C18.7893 20.3643 19 19.8556 19 19.3252V7.3252C19 6.79476 18.7893 6.28605 18.4142 5.91098C18.0391 5.53591 17.5304 5.3252 17 5.3252H15M9 5.3252C9 4.79476 9.21071 4.28605 9.58579 3.91098C9.96086 3.53591 10.4696 3.3252 11 3.3252H13C13.5304 3.3252 14.0391 3.53591 14.4142 3.91098C14.7893 4.28605 15 4.79476 15 5.3252M9 5.3252C9 5.85563 9.21071 6.36434 9.58579 6.73941C9.96086 7.11448 10.4696 7.3252 11 7.3252H13C13.5304 7.3252 14.0391 7.11448 14.4142 6.73941C14.7893 6.36434 15 5.85563 15 5.3252M14 11.3252H11.5C11.1022 11.3252 10.7206 11.4832 10.4393 11.7645C10.158 12.0458 10 12.4274 10 12.8252C10 13.223 10.158 13.6046 10.4393 13.8859C10.7206 14.1672 11.1022 14.3252 11.5 14.3252H12.5C12.8978 14.3252 13.2794 14.4832 13.5607 14.7645C13.842 15.0458 14 15.4274 14 15.8252C14 16.223 13.842 16.6046 13.5607 16.8859C13.2794 17.1672 12.8978 17.3252 12.5 17.3252H10M12 17.3252V18.3252M12 10.3252V11.3252" stroke="#354052" stroke-width="2" stroke-linecap="round" stroke-linejoin="round"/>
</svg>
