<svg width="24" height="25" viewBox="0 0 24 25" fill="none" xmlns="http://www.w3.org/2000/svg">
<path d="M15 7.3252C15.5304 7.3252 16.0391 7.53591 16.4142 7.91098C16.7893 8.28605 17 8.79476 17 9.3252M15 3.3252C16.5913 3.3252 18.1174 3.95734 19.2426 5.08255C20.3679 6.20777 21 7.7339 21 9.3252M5 4.3252H9L11 9.3252L8.5 10.8252C9.57096 12.9967 11.3285 14.7542 13.5 15.8252L15 13.3252L20 15.3252V19.3252C20 19.8556 19.7893 20.3643 19.4142 20.7394C19.0391 21.1145 18.5304 21.3252 18 21.3252C14.0993 21.0881 10.4202 19.4317 7.65683 16.6684C4.8935 13.905 3.23705 10.2259 3 6.3252C3 5.79476 3.21071 5.28605 3.58579 4.91098C3.96086 4.53591 4.46957 4.3252 5 4.3252Z" stroke="#354052" stroke-width="2" stroke-linecap="round" stroke-linejoin="round"/>
</svg>
