<svg width="24" height="25" viewBox="0 0 24 25" fill="none" xmlns="http://www.w3.org/2000/svg">
<path d="M10.325 4.6422C10.751 2.8862 13.249 2.8862 13.675 4.6422C13.7389 4.90599 13.8642 5.15097 14.0407 5.35719C14.2172 5.56342 14.4399 5.72505 14.6907 5.82894C14.9414 5.93283 15.2132 5.97605 15.4838 5.95506C15.7544 5.93408 16.0162 5.8495 16.248 5.7082C17.791 4.7682 19.558 6.5342 18.618 8.0782C18.4769 8.30985 18.3924 8.57153 18.3715 8.84197C18.3506 9.1124 18.3938 9.38396 18.4975 9.63457C18.6013 9.88519 18.7627 10.1078 18.9687 10.2842C19.1747 10.4607 19.4194 10.5861 19.683 10.6502C21.439 11.0762 21.439 13.5742 19.683 14.0002C19.4192 14.0641 19.1742 14.1894 18.968 14.3659C18.7618 14.5424 18.6001 14.7651 18.4963 15.0158C18.3924 15.2666 18.3491 15.5384 18.3701 15.809C18.3911 16.0796 18.4757 16.3414 18.617 16.5732C19.557 18.1162 17.791 19.8832 16.247 18.9432C16.0153 18.8021 15.7537 18.7176 15.4832 18.6967C15.2128 18.6758 14.9412 18.719 14.6906 18.8227C14.44 18.9265 14.2174 19.0879 14.0409 19.2939C13.8645 19.4999 13.7391 19.7446 13.675 20.0082C13.249 21.7642 10.751 21.7642 10.325 20.0082C10.2611 19.7444 10.1358 19.4994 9.95929 19.2932C9.7828 19.087 9.56011 18.9253 9.30935 18.8214C9.05859 18.7176 8.78683 18.6743 8.51621 18.6953C8.24559 18.7163 7.98375 18.8009 7.752 18.9422C6.209 19.8822 4.442 18.1162 5.382 16.5722C5.5231 16.3405 5.60755 16.0789 5.62848 15.8084C5.64942 15.538 5.60624 15.2664 5.50247 15.0158C5.3987 14.7652 5.23726 14.5426 5.03127 14.3661C4.82529 14.1897 4.58056 14.0643 4.317 14.0002C2.561 13.5742 2.561 11.0762 4.317 10.6502C4.5808 10.5863 4.82578 10.461 5.032 10.2845C5.23822 10.108 5.39985 9.88531 5.50375 9.63454C5.60764 9.38378 5.65085 9.11203 5.62987 8.84141C5.60889 8.57079 5.5243 8.30895 5.383 8.0772C4.443 6.5342 6.209 4.7672 7.753 5.7072C8.753 6.3152 10.049 5.7772 10.325 4.6422Z" stroke="#354052" stroke-width="2" stroke-linecap="round" stroke-linejoin="round"/>
<path d="M9 12.3252C9 13.1208 9.31607 13.8839 9.87868 14.4465C10.4413 15.0091 11.2044 15.3252 12 15.3252C12.7956 15.3252 13.5587 15.0091 14.1213 14.4465C14.6839 13.8839 15 13.1208 15 12.3252C15 11.5295 14.6839 10.7665 14.1213 10.2039C13.5587 9.64127 12.7956 9.3252 12 9.3252C11.2044 9.3252 10.4413 9.64127 9.87868 10.2039C9.31607 10.7665 9 11.5295 9 12.3252Z" stroke="#354052" stroke-width="2" stroke-linecap="round" stroke-linejoin="round"/>
</svg>
