<svg width="24" height="25" viewBox="0 0 24 25" fill="none" xmlns="http://www.w3.org/2000/svg">
<path d="M6 17.3252C6.53043 17.3252 7.03914 17.5359 7.41421 17.911C7.78929 18.2861 8 18.7948 8 19.3252C8 19.8556 7.78929 20.3643 7.41421 20.7394C7.03914 21.1145 6.53043 21.3252 6 21.3252C5.46957 21.3252 4.96086 21.1145 4.58579 20.7394C4.21071 20.3643 4 19.8556 4 19.3252C4 18.7948 4.21071 18.2861 4.58579 17.911C4.96086 17.5359 5.46957 17.3252 6 17.3252ZM6 17.3252H17M6 17.3252V3.3252H4M17 17.3252C17.5304 17.3252 18.0391 17.5359 18.4142 17.911C18.7893 18.2861 19 18.7948 19 19.3252C19 19.8556 18.7893 20.3643 18.4142 20.7394C18.0391 21.1145 17.5304 21.3252 17 21.3252C16.4696 21.3252 15.9609 21.1145 15.5858 20.7394C15.2107 20.3643 15 19.8556 15 19.3252C15 18.7948 15.2107 18.2861 15.5858 17.911C15.9609 17.5359 16.4696 17.3252 17 17.3252ZM6 5.3252L12 5.7542M19.138 12.3272L18.995 13.3272H5.995M15 6.3252H21M18 3.3252V9.3252" stroke="#354052" stroke-width="2" stroke-linecap="round" stroke-linejoin="round"/>
</svg>
