<svg width="24" height="25" viewBox="0 0 24 25" fill="none" xmlns="http://www.w3.org/2000/svg">
<path d="M9 14.3252C9 15.9822 11.686 17.3252 15 17.3252C18.314 17.3252 21 15.9822 21 14.3252M9 14.3252C9 12.6682 11.686 11.3252 15 11.3252C18.314 11.3252 21 12.6682 21 14.3252M9 14.3252V18.3252C9 19.9812 11.686 21.3252 15 21.3252C18.314 21.3252 21 19.9812 21 18.3252V14.3252M3 6.3252C3 7.3972 4.144 8.38719 6 8.92319C7.856 9.45919 10.144 9.45919 12 8.92319C13.856 8.38719 15 7.3972 15 6.3252C15 5.2532 13.856 4.2632 12 3.7272C10.144 3.1912 7.856 3.1912 6 3.7272C4.144 4.2632 3 5.2532 3 6.3252ZM3 6.3252V16.3252C3 17.2132 3.772 17.7752 5 18.3252M3 11.3252C3 12.2132 3.772 12.7752 5 13.3252" stroke="#354052" stroke-width="2" stroke-linecap="round" stroke-linejoin="round"/>
</svg>
