<svg width="24" height="24" viewBox="0 0 24 24" fill="none" xmlns="http://www.w3.org/2000/svg">
<path d="M5 16.6748C5 17.2052 5.21071 17.7139 5.58579 18.089C5.96086 18.4641 6.46957 18.6748 7 18.6748C7.53043 18.6748 8.03914 18.4641 8.41421 18.089C8.78929 17.7139 9 17.2052 9 16.6748M5 16.6748C5 16.1444 5.21071 15.6357 5.58579 15.2606C5.96086 14.8855 6.46957 14.6748 7 14.6748C7.53043 14.6748 8.03914 14.8855 8.41421 15.2606C8.78929 15.6357 9 16.1444 9 16.6748M5 16.6748H3V12.6748M9 16.6748H15M15 16.6748C15 17.2052 15.2107 17.7139 15.5858 18.089C15.9609 18.4641 16.4696 18.6748 17 18.6748C17.5304 18.6748 18.0391 18.4641 18.4142 18.089C18.7893 17.7139 19 17.2052 19 16.6748M15 16.6748C15 16.1444 15.2107 15.6357 15.5858 15.2606C15.9609 14.8855 16.4696 14.6748 17 14.6748C17.5304 14.6748 18.0391 14.8855 18.4142 15.2606C18.7893 15.6357 19 16.1444 19 16.6748M19 16.6748H21V10.6748M2 4.6748H13V16.6748M21 10.6748H13M21 10.6748L18 5.6748H13M3 8.6748H7" stroke="#354052" stroke-width="2" stroke-linecap="round" stroke-linejoin="round"/>
</svg>
